<svg xmlns="http://www.w3.org/2000/svg" width="54" height="100" viewBox="0 0 54 100"><defs><clipPath id="dnuta"><path fill="#fff" d="M27 0c14.912 0 27 12.089 27 27v46c0 14.912-12.088 27-27 27S0 87.912 0 73V27C0 12.09 12.088 0 27 0z"/></clipPath></defs><g><g><path fill="#fff" d="M27 0c14.912 0 27 12.089 27 27v46c0 14.912-12.088 27-27 27S0 87.912 0 73V27C0 12.09 12.088 0 27 0z"/><path fill="none" stroke="#fff" stroke-linecap="round" stroke-linejoin="round" stroke-miterlimit="50" stroke-width="8" d="M27 0c14.912 0 27 12.089 27 27v46c0 14.912-12.088 27-27 27S0 87.912 0 73V27C0 12.09 12.088 0 27 0z" clip-path="url(&quot;#dnuta&quot;)"/></g></g></svg>