<svg xmlns="http://www.w3.org/2000/svg" width="11" height="14" viewBox="0 0 11 14"><g><g><path fill="#fff" d="M9.833 12.025c0 .572-.46 1.032-1.032 1.032H2c-.572 0-1.032-.46-1.032-1.032V7.641c0-.573.46-1.032 1.032-1.032H8.8c.572 0 1.032.46 1.032 1.032zm-7.834 1.999H8.8c1.104 0 2-.87 2-1.975V7.632c0-.894-.565-1.66-1.452-1.91v-2.12C9.35 1.629 7.778 0 5.803 0h-.806C3.022 0 1.41 1.62 1.41 3.595v2.127l.047-.006A2 2 0 0 0 0 7.64v4.416c0 1.096.895 1.967 1.999 1.967zm.379-10.437A2.625 2.625 0 0 1 4.997.967h.806c1.443 0 2.58 1.193 2.58 2.636v2.039H1.998c.266 0 .379-1.79.379-2.055z"/></g></g></svg>