<svg xmlns="http://www.w3.org/2000/svg" width="22" height="21" viewBox="0 0 22 21"><g><g><path fill="#334856" fill-opacity=".55" d="M2.768 8.545l-.298.304-.011-.01.334-.374 4.737-.689c.52-.075.97-.402 1.202-.873l2.16-4.317c.029 0 .036.012.042.024l2.119 4.293c.233.47.682.798 1.202.873l4.737.689.025.08-3.428 3.341a1.6 1.6 0 0 0-.46 1.413l.81 4.718-.066.049-4.238-2.229a1.598 1.598 0 0 0-1.486.001l-4.236 2.228.204.388-.013.007-.258-.444.809-4.718a1.598 1.598 0 0 0-.46-1.413zm12.797 11.777c.257.135.537.203.815.203.37-.002.73-.12 1.03-.337.54-.39.811-1.055.696-1.713l-.873-5.22 3.76-3.665c.48-.465.652-1.162.443-1.797a1.74 1.74 0 0 0-1.414-1.19l-5.234-.783-2.324-4.708a1.741 1.741 0 0 0-1.57-.976 1.74 1.74 0 0 0-1.57.976L6.96 5.848l-5.196.755A1.74 1.74 0 0 0 .35 7.793 1.74 1.74 0 0 0 .794 9.59l3.774 3.71-.887 5.174a1.737 1.737 0 0 0 .697 1.713 1.738 1.738 0 0 0 1.844.134l4.695-2.444 4.648 2.445z"/></g></g></svg>