<svg width="41" height="37" viewBox="0 0 41 37" fill="none" xmlns="http://www.w3.org/2000/svg">
<path d="M36.7551 3.42274C32.3192 -1.14036 25.1276 -1.14036 20.6917 3.42274L20.0568 4.07577L19.422 3.42274C14.9872 -1.14036 7.79583 -1.14091 3.36018 3.42107C1.22929 5.6125 0.0324907 8.5851 0.0327616 11.6847C0.024095 14.7852 1.2217 17.7603 3.35855 19.9467L18.525 35.548C19.3711 36.4181 20.7426 36.4181 21.5887 35.548L36.7551 19.9467C41.1908 15.3836 41.1908 7.98557 36.7551 3.42274ZM33.8042 16.6791C33.7671 16.7181 33.7294 16.7568 33.6912 16.7953L20.0566 30.8208L6.42191 16.7953C3.68084 13.9717 3.68084 9.39776 6.42191 6.57421C9.16786 3.75678 13.6122 3.75678 16.3581 6.57421L18.5248 8.80296C19.3708 9.67301 20.7423 9.67301 21.5884 8.80296L23.755 6.57421C26.4677 3.71973 30.9163 3.66763 33.6912 6.45803C36.4664 9.24844 36.5168 13.8246 33.8042 16.6791Z" fill="black"/>
</svg>
