<svg width="130" height="134" viewBox="0 0 130 134" fill="none" xmlns="http://www.w3.org/2000/svg">
<g clip-path="url(#clip0)">
<path d="M88.7551 3.42274C84.3192 -1.14036 77.1276 -1.14036 72.6917 3.42274L72.0568 4.07577L71.422 3.42274C66.9872 -1.14036 59.7958 -1.14091 55.3602 3.42107C53.2293 5.6125 52.0325 8.5851 52.0328 11.6847C52.0241 14.7852 53.2217 17.7603 55.3586 19.9467L70.525 35.548C71.3711 36.4181 72.7426 36.4181 73.5887 35.548L88.7551 19.9467C93.1908 15.3836 93.1908 7.98557 88.7551 3.42274ZM85.8042 16.6791C85.7671 16.7181 85.7294 16.7568 85.6912 16.7953L72.0566 30.8208L58.4219 16.7953C55.6808 13.9717 55.6808 9.39776 58.4219 6.57421C61.1679 3.75678 65.6122 3.75678 68.3581 6.57421L70.5248 8.80296C71.3708 9.67301 72.7423 9.67301 73.5884 8.80296L75.755 6.57421C78.4677 3.71973 82.9163 3.66763 85.6912 6.45803C88.4664 9.24844 88.5168 13.8246 85.8042 16.6791Z" fill="black"/>
<path d="M105.083 67.2136H85.5831V51.6123C85.5761 45.4609 80.7299 40.4757 74.7499 40.4685H66.0834C64.8868 40.4685 63.9167 41.4664 63.9167 42.6973V68.4305L47.9356 82.8149H33.5838V80.5861C33.5838 79.3553 32.6137 78.3574 31.4171 78.3574H11.9174C10.7208 78.3574 9.75073 79.3553 9.75073 80.5861V131.848C9.75073 133.078 10.7208 134.076 11.9174 134.076H31.4171C32.6137 134.076 33.5838 133.078 33.5838 131.848V125.161H54.8992L67.5654 129.503C67.7861 129.579 68.0171 129.618 68.25 129.619H105.083C113.455 129.609 120.24 122.63 120.249 114.017V82.8149C120.24 74.2024 113.455 67.2233 105.083 67.2136ZM29.2505 85.0436V129.619H14.084V82.8149H29.2505V85.0436ZM115.916 87.2724V96.1874H102.916V100.645H115.916V109.56H102.916V114.017H115.916C115.909 120.169 111.063 125.154 105.083 125.161H68.601L55.9348 120.82C55.7141 120.743 55.4831 120.704 55.2502 120.704H33.5838V87.2724H48.7502C49.2754 87.2729 49.7827 87.0774 50.1781 86.7219L67.5112 71.1206C67.9813 70.6968 68.2505 70.0851 68.25 69.4423V44.926H74.7499C78.3398 44.926 81.2498 47.9195 81.2498 51.6123V69.4423C81.2498 70.6732 82.22 71.6711 83.4165 71.6711H105.083C111.063 71.6783 115.909 76.6635 115.916 82.8149H102.916V87.2724H115.916Z" fill="black"/>
</g>
<defs>
<clipPath id="clip0">
<rect width="130" height="133.727" fill="white"/>
</clipPath>
</defs>
</svg>
